<svg width="125" height="125" viewBox="0 0 125 125" fill="none" xmlns="http://www.w3.org/2000/svg">
<path d="M71.4137 5.77809L69.978 6.05961C69.909 5.8185 69.7975 5.58055 69.6436 5.34577C69.4945 5.10694 69.2804 4.90273 69.0011 4.73315C68.7219 4.56356 68.3551 4.46005 67.9007 4.42261C67.2785 4.37137 66.7483 4.47206 66.3099 4.72469C65.8764 4.97327 65.6416 5.31595 65.6056 5.75276C65.5736 6.14103 65.6895 6.4593 65.9534 6.70758C66.2172 6.95586 66.643 7.17972 67.2307 7.37916L68.7091 7.87407C69.5998 8.16955 70.2493 8.56286 70.6575 9.05402C71.066 9.54076 71.2411 10.1393 71.1826 10.8497C71.1346 11.4321 70.924 11.9389 70.5509 12.3701C70.1822 12.8017 69.6891 13.1254 69.0717 13.341C68.4542 13.5567 67.7506 13.632 66.9609 13.567C65.924 13.4815 65.0844 13.1858 64.442 12.6798C63.7996 12.1738 63.4235 11.481 63.3139 10.6013L64.8269 10.3528C64.923 10.9115 65.1561 11.3438 65.5263 11.6497C65.9009 11.956 66.408 12.1355 67.0478 12.1882C67.7758 12.2482 68.3665 12.1413 68.8199 11.8677C69.2781 11.5901 69.5252 11.2329 69.5612 10.7961C69.5902 10.4431 69.4911 10.1373 69.2636 9.8787C69.0365 9.61568 68.672 9.40353 68.17 9.24224L66.5084 8.70559C65.5956 8.4083 64.9399 8.01003 64.5413 7.51077C64.1474 7.00747 63.9794 6.40505 64.0372 5.70352C64.0844 5.12994 64.2872 4.63581 64.6457 4.22113C65.0085 3.80681 65.4805 3.49698 66.0615 3.29164C66.647 3.08667 67.2971 3.01362 68.0119 3.0725C69.0178 3.15536 69.7894 3.44103 70.3267 3.92949C70.8683 4.41831 71.2307 5.03451 71.4137 5.77809Z" fill="black"/>
<path d="M75.5117 15.1909C74.5858 14.952 73.8449 14.5277 73.289 13.9179C72.7331 13.3081 72.3741 12.5731 72.212 11.7128C72.0499 10.8526 72.0961 9.92953 72.3505 8.94359C72.6093 7.94051 73.022 7.10287 73.5887 6.43068C74.1607 5.75531 74.8348 5.28687 75.611 5.02536C76.3925 4.76067 77.2291 4.74335 78.1207 4.97342C78.8152 5.15261 79.4078 5.4427 79.8988 5.84369C80.3897 6.24468 80.7533 6.72256 80.9896 7.27733C81.2259 7.83209 81.3073 8.42918 81.2338 9.06858L79.7163 8.67703C79.7167 8.19706 79.5624 7.73204 79.2533 7.28195C78.9496 6.82868 78.4634 6.51577 77.7947 6.34322C77.2032 6.19058 76.6446 6.21106 76.1192 6.40467C75.5991 6.5951 75.1429 6.93687 74.7505 7.42998C74.3634 7.91992 74.0737 8.53783 73.8812 9.28371C73.6844 10.0467 73.6329 10.7421 73.727 11.3699C73.8253 11.9988 74.0549 12.5267 74.4157 12.9535C74.7807 13.3815 75.2633 13.6729 75.8635 13.8278C76.2579 13.9295 76.6335 13.9533 76.9904 13.8991C77.3473 13.8449 77.6704 13.7179 77.9596 13.5182C78.2489 13.3185 78.4872 13.0508 78.6744 12.7151L80.1919 13.1066C79.9557 13.6675 79.608 14.1379 79.1488 14.5177C78.695 14.8944 78.1562 15.1486 77.5324 15.2803C76.914 15.4087 76.2405 15.379 75.5117 15.1909Z" fill="black"/>
<path d="M79.7903 16.3994L83.7765 7.01057L85.1701 7.60226L84.5681 9.02037L84.6659 9.06189C85.0342 8.67001 85.504 8.42455 86.0751 8.32554C86.6462 8.22652 87.2129 8.29639 87.7752 8.53515C87.8812 8.58013 88.0128 8.6384 88.17 8.70995C88.3271 8.7815 88.4448 8.83865 88.5228 8.8814L87.9 10.3484C87.8563 10.3154 87.752 10.2495 87.5871 10.1507C87.4281 10.0495 87.2528 9.95822 87.0613 9.8769C86.6049 9.68313 86.1567 9.60588 85.7168 9.64516C85.2827 9.68209 84.8908 9.82352 84.5411 10.0694C84.1972 10.313 83.9353 10.6467 83.7554 11.0705L81.2329 17.0119L79.7903 16.3994Z" fill="black"/>
<path d="M88.5968 21.1625C87.8138 20.6779 87.2421 20.0664 86.8817 19.3279C86.5251 18.5918 86.3885 17.7862 86.4719 16.9111C86.559 16.0384 86.8798 15.154 87.4343 14.258C87.9934 13.3545 88.6452 12.6672 89.3898 12.196C90.1381 11.7272 90.9212 11.4881 91.7391 11.4789C92.5607 11.472 93.3631 11.7108 94.1461 12.1953C94.9291 12.6799 95.4989 13.2903 95.8556 14.0264C96.216 14.7648 96.3514 15.5723 96.2619 16.4488C96.1762 17.3277 95.8538 18.2189 95.2947 19.1224C94.7402 20.0183 94.09 20.6988 93.344 21.1639C92.6018 21.6313 91.8199 21.8685 90.9982 21.8754C90.1803 21.8847 89.3799 21.647 88.5968 21.1625ZM89.3377 19.9653C89.9325 20.3334 90.5162 20.4838 91.0889 20.4165C91.6616 20.3492 92.1939 20.1242 92.6859 19.7414C93.1779 19.3587 93.6032 18.8774 93.962 18.2977C94.3208 17.7179 94.5629 17.1206 94.6882 16.5058C94.8136 15.891 94.7798 15.3104 94.5869 14.7641C94.3939 14.2178 94.0001 13.7606 93.4053 13.3925C92.8105 13.0244 92.2256 12.8759 91.6505 12.9469C91.0755 13.018 90.5409 13.2468 90.0466 13.6333C89.5523 14.0199 89.1257 14.503 88.7669 15.0827C88.4082 15.6625 88.1673 16.2579 88.0442 16.8689C87.9212 17.48 87.9573 18.0568 88.1526 18.5994C88.3478 19.1419 88.7429 19.5973 89.3377 19.9653Z" fill="black"/>
<path d="M102.493 14.3294L93.8338 24.8169L92.6253 23.8191L101.284 13.3316L102.493 14.3294Z" fill="black"/>
<path d="M106.58 18.1183L97.0255 27.797L95.9102 26.696L105.464 17.0173L106.58 18.1183Z" fill="black"/>
<path d="M103.874 37.0026C103.426 36.2803 103.213 35.5294 103.234 34.7501C103.26 33.9683 103.511 33.2136 103.987 32.486C104.466 31.756 105.165 31.1062 106.083 30.5367C106.993 29.9719 107.88 29.6379 108.744 29.5348C109.607 29.4316 110.394 29.5452 111.104 29.8755C111.814 30.2059 112.396 30.736 112.849 31.4658C113.199 32.0301 113.381 32.5342 113.396 32.9782C113.417 33.4236 113.363 33.8064 113.233 34.1265C113.11 34.448 113.003 34.7043 112.913 34.8955L112.983 35.0083L117.249 32.3617L118.076 33.6934L106.519 40.8631L105.721 39.5766L107.053 38.7504L106.955 38.5924C106.736 38.5926 106.45 38.5771 106.097 38.5459C105.748 38.5123 105.376 38.3865 104.98 38.1684C104.588 37.9479 104.219 37.5593 103.874 37.0026ZM105.182 36.441C105.514 36.9752 105.933 37.3402 106.44 37.5362C106.951 37.7298 107.514 37.7685 108.13 37.6523C108.749 37.5338 109.386 37.2714 110.041 36.8653C110.688 36.4639 111.195 36.0186 111.564 35.5294C111.936 35.0379 112.144 34.5238 112.186 33.9871C112.232 33.4481 112.087 32.9077 111.75 32.366C111.4 31.8017 110.964 31.4213 110.441 31.2248C109.924 31.0298 109.361 30.9911 108.751 31.1087C108.148 31.2278 107.541 31.4764 106.932 31.8545C106.315 32.2372 105.813 32.679 105.425 33.1799C105.044 33.6821 104.82 34.2117 104.754 34.7685C104.694 35.3267 104.837 35.8842 105.182 36.441Z" fill="black"/>
<path d="M107.913 45.4725C107.578 44.6146 107.489 43.7822 107.645 42.9754C107.802 42.1728 108.177 41.4468 108.77 40.7976C109.364 40.1524 110.152 39.6385 111.134 39.2557C112.124 38.8697 113.058 38.7122 113.936 38.7831C114.816 38.8582 115.585 39.1378 116.245 39.6221C116.906 40.1104 117.403 40.7835 117.738 41.6414C118.072 42.4994 118.161 43.3296 118.003 44.1323C117.848 44.9391 117.47 45.6659 116.872 46.3126C116.275 46.9634 115.482 47.4819 114.492 47.8679C113.51 48.2507 112.582 48.4037 111.706 48.327C110.832 48.2545 110.064 47.974 109.404 47.4857C108.744 47.0015 108.247 46.3304 107.913 45.4725ZM109.225 44.961C109.479 45.6127 109.855 46.0838 110.353 46.3742C110.851 46.6647 111.412 46.8048 112.035 46.7946C112.658 46.7844 113.288 46.6554 113.923 46.4078C114.558 46.1601 115.11 45.8282 115.58 45.4122C116.05 44.9962 116.372 44.5119 116.546 43.9593C116.72 43.4067 116.68 42.8046 116.426 42.1529C116.172 41.5012 115.794 41.0309 115.292 40.7421C114.789 40.4533 114.224 40.3148 113.597 40.3266C112.97 40.3384 112.338 40.4681 111.703 40.7158C111.068 40.9635 110.518 41.2945 110.052 41.709C109.586 42.1234 109.268 42.6061 109.098 43.157C108.928 43.708 108.97 44.3094 109.225 44.961Z" fill="black"/>
<path d="M110.022 52.0245L119.594 47.325L119.857 48.9507L112.501 52.3763L112.518 52.4811L120.575 53.3819L120.843 55.0338L113.505 58.4027L113.522 58.5076L121.557 59.4388L121.82 61.0645L111.255 59.6284L111.008 58.1077L118.386 54.6516L118.361 54.4943L110.269 53.5453L110.022 52.0245Z" fill="black"/>
<path d="M117.138 63.3974L111.009 63.0912L111.088 61.526L121.275 62.0349L121.199 63.5471L119.608 63.4676L119.601 63.6002C120.106 63.8648 120.504 64.2482 120.794 64.7502C121.088 65.2525 121.215 65.8883 121.177 66.6577C121.143 67.3474 120.971 67.9439 120.662 68.4471C120.358 68.9505 119.913 69.3317 119.328 69.5906C118.748 69.8497 118.025 69.9576 117.158 69.9143L110.685 69.5909L110.763 68.0257L117.13 68.3438C117.93 68.3838 118.564 68.2071 119.031 67.8138C119.503 67.4207 119.757 66.8616 119.793 66.1364C119.818 65.6368 119.732 65.1848 119.535 64.7805C119.338 64.3805 119.037 64.0574 118.633 63.8112C118.229 63.5649 117.73 63.427 117.138 63.3974Z" fill="black"/>
<path d="M108.902 79.1951L117.164 82.1237L116.667 83.5257L108.405 80.5971L108.902 79.1951ZM113.548 76.9809L114.95 77.4779L112.021 85.7398L110.619 85.2429L113.548 76.9809Z" fill="black"/>
<path d="M105.565 98.9302L106.063 97.5544C106.305 97.6194 106.567 97.6463 106.847 97.6352C107.129 97.6303 107.414 97.5518 107.703 97.3998C107.992 97.2477 108.27 96.9865 108.536 96.6162C108.9 96.1092 109.087 95.6028 109.096 95.0969C109.106 94.5972 108.933 94.2195 108.577 93.9638C108.26 93.7365 107.928 93.6721 107.579 93.7705C107.231 93.8688 106.819 94.1186 106.346 94.5198L105.161 95.5325C104.449 96.144 103.777 96.4983 103.146 96.5955C102.518 96.6951 101.915 96.5371 101.336 96.1212C100.862 95.7803 100.535 95.3389 100.358 94.797C100.178 94.2587 100.154 93.6694 100.287 93.029C100.42 92.3886 100.718 91.7467 101.18 91.1031C101.787 90.2581 102.473 89.6905 103.237 89.4003C104.002 89.11 104.789 89.1443 105.6 89.5031L105.034 90.9282C104.506 90.723 104.015 90.7003 103.562 90.8601C103.107 91.0236 102.692 91.366 102.317 91.8874C101.891 92.4806 101.679 93.042 101.68 93.5716C101.682 94.1073 101.861 94.5031 102.217 94.7588C102.504 94.9654 102.818 95.0378 103.156 94.9759C103.499 94.9166 103.868 94.7133 104.265 94.366L105.581 93.2177C106.305 92.5882 106.984 92.2311 107.618 92.1464C108.252 92.0678 108.855 92.2338 109.426 92.6445C109.894 92.9803 110.213 93.4086 110.384 93.9293C110.553 94.4537 110.575 95.0178 110.452 95.6216C110.326 96.2291 110.054 96.8241 109.636 97.4065C109.047 98.2263 108.405 98.7408 107.71 98.9499C107.012 99.1626 106.297 99.1561 105.565 98.9302Z" fill="black"/>
<path d="M95.3742 97.6154C96.0551 96.944 96.8 96.5266 97.6088 96.3633C98.4176 96.1999 99.2326 96.2698 100.054 96.573C100.875 96.8761 101.643 97.3902 102.358 98.1153C103.085 98.8529 103.592 99.6375 103.877 100.469C104.162 101.307 104.217 102.126 104.043 102.926C103.868 103.733 103.453 104.459 102.797 105.106C102.287 105.609 101.733 105.968 101.137 106.183C100.54 106.398 99.9436 106.465 99.3463 106.382C98.7489 106.3 98.1949 106.063 97.6843 105.671L98.8002 104.57C99.2117 104.817 99.6899 104.924 100.235 104.89C100.78 104.863 101.298 104.607 101.79 104.122C102.225 103.693 102.494 103.203 102.598 102.653C102.702 102.109 102.644 101.542 102.423 100.952C102.201 100.368 101.82 99.802 101.279 99.2535C100.726 98.6923 100.156 98.2908 99.5691 98.0487C98.9792 97.8098 98.4084 97.7353 97.8568 97.8254C97.302 97.9185 96.804 98.1827 96.3627 98.6179C96.0726 98.9038 95.8591 99.2138 95.7222 99.5478C95.5852 99.8818 95.528 100.224 95.5506 100.575C95.5732 100.926 95.6804 101.268 95.8721 101.601L94.7562 102.701C94.3965 102.21 94.1718 101.67 94.082 101.081C93.9922 100.498 94.0511 99.9055 94.2588 99.3027C94.4665 98.7063 94.8383 98.1438 95.3742 97.6154Z" fill="black"/>
<path d="M92.1269 100.678L98.1438 108.915L96.9212 109.808L96.0124 108.564L95.9266 108.627C96.0742 109.144 96.044 109.673 95.8362 110.214C95.6284 110.755 95.2778 111.206 94.7845 111.566C94.6916 111.634 94.5741 111.717 94.432 111.815C94.29 111.914 94.1806 111.985 94.1039 112.031L93.1638 110.744C93.2145 110.723 93.3246 110.667 93.494 110.576C93.6624 110.492 93.8306 110.388 93.9986 110.265C94.399 109.973 94.6951 109.628 94.887 109.23C95.0778 108.838 95.1574 108.429 95.1255 108.003C95.0928 107.583 94.9406 107.187 94.669 106.815L90.8615 101.603L92.1269 100.678Z" fill="black"/>
<path d="M83.5402 105.792C84.3573 105.368 85.1753 105.19 85.9942 105.258C86.8091 105.329 87.571 105.624 88.28 106.143C88.9851 106.665 89.5805 107.394 90.0663 108.329C90.5561 109.271 90.8128 110.183 90.8363 111.064C90.856 111.947 90.6604 112.742 90.2496 113.449C89.8348 114.159 89.2189 114.725 88.4018 115.15C87.5846 115.574 86.7686 115.751 85.9537 115.681C85.1348 115.612 84.3719 115.315 83.6648 114.79C82.9537 114.266 82.3533 113.533 81.8634 112.59C81.3777 111.655 81.126 110.748 81.1085 109.869C81.0869 108.992 81.2836 108.199 81.6983 107.49C82.1091 106.783 82.7231 106.217 83.5402 105.792ZM84.1892 107.041C83.5685 107.364 83.1405 107.788 82.9051 108.315C82.6697 108.841 82.5904 109.414 82.6673 110.032C82.7442 110.651 82.9398 111.263 83.2542 111.868C83.5685 112.473 83.9576 112.986 84.4215 113.409C84.8855 113.831 85.4015 114.099 85.9696 114.213C86.5376 114.327 87.132 114.223 87.7527 113.901C88.3734 113.578 88.8005 113.152 89.0338 112.621C89.2672 112.091 89.3444 111.515 89.2654 110.892C89.1865 110.27 88.9899 109.656 88.6756 109.051C88.3613 108.446 87.9731 107.934 87.5112 107.516C87.0493 107.097 86.5354 106.833 85.9693 106.723C85.4033 106.613 84.8099 106.719 84.1892 107.041Z" fill="black"/>
<path d="M82.2834 121.227L77.722 108.415L79.1984 107.889L83.7598 120.701L82.2834 121.227Z" fill="black"/>
<path d="M76.9118 122.794L73.5214 109.623L75.0391 109.233L78.4296 122.403L76.9118 122.794Z" fill="black"/>
<path d="M62.0855 110.754C62.9354 110.742 63.6889 110.946 64.3458 111.366C65.0027 111.79 65.5206 112.394 65.8994 113.177C66.2782 113.964 66.4755 114.897 66.4911 115.977C66.5065 117.049 66.3362 117.981 65.9802 118.774C65.6241 119.567 65.1217 120.183 64.4727 120.622C63.8238 121.061 63.0699 121.287 62.2111 121.299C61.5472 121.309 61.021 121.206 60.6327 120.99C60.24 120.778 59.9399 120.535 59.7322 120.259C59.5202 119.987 59.3554 119.764 59.2377 119.589L59.1049 119.591L59.1774 124.61L57.6103 124.633L57.4141 111.034L58.928 111.013L58.9506 112.58L59.1365 112.577C59.2489 112.389 59.4093 112.152 59.6177 111.866C59.8262 111.584 60.1258 111.33 60.5166 111.103C60.9074 110.88 61.4304 110.764 62.0855 110.754ZM61.8934 112.165C61.2648 112.174 60.736 112.346 60.3069 112.68C59.8779 113.018 59.5547 113.481 59.3374 114.068C59.1201 114.66 59.017 115.341 59.0281 116.112C59.0391 116.873 59.1594 117.538 59.389 118.105C59.6186 118.678 59.9526 119.12 60.3911 119.433C60.8295 119.749 61.3675 119.903 62.0049 119.894C62.6689 119.884 63.2198 119.706 63.6575 119.359C64.0909 119.016 64.4141 118.553 64.627 117.97C64.8356 117.391 64.9348 116.744 64.9244 116.027C64.9139 115.301 64.7937 114.643 64.5639 114.053C64.3296 113.467 63.9908 113.003 63.5476 112.659C63.0999 112.32 62.5485 112.156 61.8934 112.165Z" fill="black"/>
<path d="M52.6994 109.862C53.6073 110.016 54.3672 110.367 54.9793 110.915C55.5871 111.463 56.0172 112.157 56.2697 112.999C56.5178 113.841 56.5539 114.781 56.3779 115.82C56.2005 116.867 55.8557 117.75 55.3436 118.467C54.8272 119.183 54.1919 119.699 53.4377 120.016C52.6793 120.332 51.8461 120.413 50.9382 120.259C50.0303 120.106 49.2724 119.755 48.6647 119.208C48.0526 118.659 47.6229 117.962 47.3755 117.117C47.1237 116.27 47.0866 115.323 47.264 114.276C47.44 113.237 47.7858 112.362 48.3016 111.65C48.8129 110.937 49.4478 110.423 50.2063 110.107C50.9604 109.79 51.7915 109.708 52.6994 109.862ZM52.4642 111.25C51.7746 111.133 51.1772 111.214 50.6721 111.492C50.167 111.77 49.7587 112.179 49.4472 112.719C49.1357 113.259 48.9231 113.865 48.8092 114.538C48.6953 115.21 48.6962 115.854 48.8117 116.471C48.9273 117.088 49.1773 117.613 49.5619 118.046C49.9465 118.48 50.4836 118.755 51.1733 118.871C51.8629 118.988 52.4607 118.905 52.9665 118.623C53.4724 118.34 53.8814 117.927 54.1936 117.383C54.5059 116.838 54.7189 116.23 54.8328 115.558C54.9466 114.886 54.9454 114.243 54.8291 113.631C54.7128 113.019 54.462 112.498 54.0767 112.069C53.6914 111.64 53.1539 111.367 52.4642 111.25Z" fill="black"/>
<path d="M45.9929 108.306L45.1063 118.932L43.5763 118.323L44.4174 110.252L44.3187 110.213L39.4058 116.662L37.8511 116.043L38.7317 108.016L38.633 107.977L33.7053 114.392L32.1752 113.783L38.8364 105.456L40.2677 106.026L39.4414 114.132L39.5895 114.191L44.5616 107.736L45.9929 108.306Z" fill="black"/>
<path d="M32.6428 108.597L36.0598 103.501L37.3615 104.374L31.6812 112.846L30.4236 112.003L31.3112 110.679L31.2009 110.605C30.7138 110.902 30.1806 111.045 29.6011 111.035C29.0191 111.029 28.4082 110.811 27.7684 110.382C27.1947 109.998 26.7717 109.543 26.4993 109.02C26.2244 108.499 26.1265 107.922 26.2055 107.288C26.2821 106.657 26.562 105.981 27.0452 105.26L30.6546 99.8769L31.9562 100.75L28.406 106.045C27.9598 106.71 27.785 107.345 27.8816 107.948C27.9758 108.554 28.3244 109.06 28.9274 109.464C29.3429 109.743 29.7747 109.902 30.2228 109.941C30.6672 109.978 31.099 109.886 31.5183 109.666C31.9376 109.447 32.3124 109.09 32.6428 108.597Z" fill="black"/>
<path d="M23.3273 93.4069L16.5754 98.997L15.6268 97.8512L22.3787 92.2612L23.3273 93.4069ZM22.8449 98.5307L21.6992 99.4793L16.1091 92.7274L17.2549 91.7788L22.8449 98.5307Z" fill="black"/>
<path d="M8.0784 80.4101L9.00452 81.5428C8.82455 81.7174 8.66742 81.928 8.53313 82.1745C8.39302 82.4188 8.31413 82.704 8.29648 83.0302C8.27883 83.3564 8.3608 83.7286 8.54238 84.1469C8.79096 84.7195 9.13009 85.1393 9.55977 85.4065C9.98363 85.6713 10.3966 85.7164 10.7986 85.5419C11.156 85.3868 11.3818 85.1343 11.4761 84.7845C11.5703 84.4347 11.5666 83.9536 11.4649 83.3414L11.2031 81.8045C11.043 80.8798 11.083 80.1216 11.3232 79.5298C11.5594 78.9399 12.0043 78.503 12.6582 78.2191C13.1942 77.9864 13.7404 77.9327 14.2967 78.058C14.8513 78.1792 15.3694 78.461 15.851 78.9035C16.3327 79.3459 16.7313 79.9306 17.0469 80.6575C17.4612 81.6118 17.597 82.4915 17.4543 83.2968C17.3115 84.102 16.8784 84.7606 16.1547 85.2726L15.2212 84.0562C15.6684 83.7077 15.9394 83.298 16.0342 82.8273C16.1273 82.3525 16.0461 81.8207 15.7904 81.2319C15.4996 80.5618 15.1265 80.0916 14.6712 79.8211C14.2101 79.5483 13.7785 79.4991 13.3765 79.6737C13.0516 79.8147 12.8289 80.0465 12.7084 80.3692C12.5837 80.6935 12.5689 81.1151 12.6637 81.6337L12.9752 83.3518C13.1442 84.2968 13.1027 85.0628 12.8508 85.65C12.5932 86.2348 12.1415 86.6674 11.4958 86.9477C10.9679 87.1769 10.4365 87.2314 9.90174 87.1113C9.36519 86.9871 8.86922 86.7174 8.41385 86.3021C7.95672 85.8828 7.58535 85.3442 7.29975 84.6864C6.89779 83.7605 6.78526 82.9454 6.96216 82.2412C7.1373 81.5329 7.50938 80.9225 8.0784 80.4101Z" fill="black"/>
<path d="M14.4447 72.3419C14.6703 73.2711 14.6452 74.1246 14.3693 74.9023C14.0935 75.6799 13.6143 76.3429 12.932 76.8913C12.2497 77.4396 11.4138 77.8339 10.4243 78.0741C9.41757 78.3185 8.48428 78.3492 7.62437 78.1662C6.75912 77.9799 6.0283 77.6061 5.43189 77.0448C4.83013 76.4802 4.42063 75.7505 4.20338 74.8556C4.03417 74.1587 4.01074 73.4993 4.13309 72.8773C4.25543 72.2554 4.50557 71.7095 4.88351 71.2396C5.26144 70.7697 5.74972 70.4165 6.34833 70.1801L6.71808 71.703C6.29456 71.9289 5.95713 72.2841 5.7058 72.7688C5.44911 73.2503 5.40224 73.8266 5.56518 74.4977C5.70932 75.0914 5.99058 75.5743 6.40896 75.9466C6.82199 76.3155 7.33843 76.5569 7.95828 76.6706C8.57279 76.7811 9.25433 76.7455 10.0029 76.5637C10.7687 76.3778 11.4063 76.0954 11.9156 75.7167C12.424 75.3336 12.7814 74.8823 12.9879 74.363C13.1933 73.8393 13.2229 73.2763 13.0767 72.674C12.9806 72.2782 12.8245 71.9357 12.6085 71.6465C12.3925 71.3573 12.1283 71.1321 11.8159 70.9711C11.5034 70.81 11.155 70.7261 10.7707 70.7191L10.4009 69.1962C11.0069 69.1402 11.5856 69.2252 12.137 69.4512C12.6831 69.674 13.1612 70.0294 13.5713 70.5175C13.976 71.0024 14.2672 71.6105 14.4447 72.3419Z" fill="black"/>
<path d="M13.4947 68.007L3.33608 68.9252L3.19979 67.4173L4.73416 67.2786L4.7246 67.1728C4.20522 67.0331 3.76709 66.7348 3.4102 66.2781C3.05332 65.8214 2.84738 65.2888 2.79238 64.6804C2.78202 64.5657 2.77127 64.4222 2.76014 64.2499C2.74901 64.0775 2.74386 63.9469 2.74471 63.8579L4.33199 63.7144C4.32355 63.7685 4.31466 63.8916 4.30535 64.0836C4.29122 64.2715 4.29352 64.4691 4.31225 64.6764C4.35689 65.1702 4.50036 65.6017 4.74265 65.971C4.98014 66.3363 5.28982 66.615 5.6717 66.8072C6.04876 66.9953 6.46657 67.0687 6.92511 67.0273L13.3536 66.4462L13.4947 68.007Z" fill="black"/>
<path d="M13.5309 57.913C13.4742 58.8321 13.2057 59.625 12.7255 60.2917C12.2455 60.954 11.6003 61.4554 10.7897 61.7957C9.9795 62.1316 9.04856 62.2671 7.99691 62.2022C6.93643 62.1368 6.02257 61.8875 5.25534 61.4543C4.48838 61.0167 3.90744 60.4397 3.51252 59.7234C3.11786 59.0027 2.94888 58.1828 3.00558 57.2637C3.06228 56.3446 3.33061 55.5539 3.81059 54.8915C4.29083 54.2248 4.93828 53.7236 5.75294 53.388C6.56787 53.0479 7.50558 52.9106 8.56607 52.976C9.61771 53.0409 10.5248 53.292 11.2873 53.7294C12.0502 54.1623 12.6289 54.7392 13.0235 55.4599C13.4185 56.1762 13.5876 56.9939 13.5309 57.913ZM12.1257 57.8263C12.1688 57.1281 12.0253 56.5427 11.6952 56.0699C11.3651 55.5971 10.9151 55.2345 10.3452 54.982C9.77524 54.7295 9.15005 54.5822 8.46957 54.5402C7.78909 54.4983 7.14833 54.5674 6.54729 54.7477C5.94625 54.9279 5.45066 55.2322 5.06053 55.6606C4.67039 56.0889 4.45379 56.6522 4.41072 57.3504C4.36765 58.0485 4.51338 58.6341 4.84791 59.1072C5.18244 59.5802 5.63687 59.9431 6.2112 60.1959C6.78553 60.4487 7.41293 60.5961 8.09341 60.638C8.77388 60.68 9.41243 60.6107 10.0091 60.4302C10.6057 60.2497 11.0969 59.9451 11.4826 59.5165C11.8683 59.0878 12.0827 58.5244 12.1257 57.8263Z" fill="black"/>
<path d="M0.930919 48.9366L14.2672 51.6017L13.9601 53.1385L0.623808 50.4734L0.930919 48.9366Z" fill="black"/>
<path d="M2.35253 43.4956L15.3935 47.3546L14.9489 48.8574L1.90784 44.9984L2.35253 43.4956Z" fill="black"/>
<path d="M20.2931 36.9873C19.866 37.7222 19.3033 38.2631 18.605 38.61C17.9029 38.9546 17.1189 39.0878 16.2529 39.0095C15.3831 38.929 14.4813 38.6174 13.5473 38.0746C12.6211 37.5363 11.9096 36.9103 11.4129 36.1966C10.9162 35.483 10.6469 34.735 10.6048 33.9528C10.5628 33.1705 10.7575 32.4081 11.1891 31.6655C11.5227 31.0914 11.882 30.6934 12.2669 30.4716C12.6503 30.2438 13.0136 30.1119 13.3571 30.076C13.699 30.034 13.9754 30.0078 14.1863 29.9972L14.2531 29.8824L9.91254 27.3598L10.7 26.0048L22.4584 32.8385L21.6977 34.1476L20.3427 33.3601L20.2493 33.5209C20.3522 33.7138 20.4727 33.9733 20.6109 34.2994C20.7453 34.6233 20.8092 35.0112 20.8026 35.4631C20.7921 35.9127 20.6223 36.4208 20.2931 36.9873ZM19.1827 36.0962C19.4986 35.5526 19.6239 35.011 19.5586 34.4713C19.4896 33.9293 19.2591 33.414 18.8673 32.9251C18.4717 32.434 17.9409 31.995 17.2749 31.6079C16.6166 31.2253 15.9849 30.9862 15.3799 30.8906C14.7711 30.7928 14.2199 30.8514 13.7263 31.0663C13.2289 31.279 12.82 31.661 12.4997 32.2122C12.166 32.7863 12.0353 33.3504 12.1076 33.9044C12.1782 34.4524 12.4087 34.9678 12.7989 35.4506C13.1875 35.9274 13.6918 36.3459 14.3119 36.7063C14.9396 37.0711 15.5655 37.3069 16.1896 37.4136C16.8122 37.5142 17.3847 37.463 17.9073 37.2598C18.4283 37.0505 18.8535 36.6626 19.1827 36.0962Z" fill="black"/>
<path d="M25.8666 29.4426C25.2673 30.1417 24.575 30.6124 23.7899 30.8549C23.0077 31.0939 22.1907 31.1049 21.3388 30.8878C20.4899 30.6673 19.6654 30.2142 18.8655 29.5284C18.0588 28.8369 17.48 28.0871 17.1291 27.2789C16.781 26.4673 16.6654 25.6568 16.7821 24.8472C16.9017 24.0343 17.2612 23.2782 17.8606 22.5791C18.4599 21.88 19.1507 21.411 19.9329 21.1719C20.718 20.9295 21.5367 20.9199 22.3891 21.1433C23.2442 21.3633 24.0752 21.819 24.8818 22.5106C25.6818 23.1963 26.2541 23.9435 26.5988 24.7522C26.9464 25.5575 27.0603 26.3666 26.9407 27.1796C26.824 27.9891 26.4659 28.7435 25.8666 29.4426ZM24.7978 28.5263C25.253 27.9953 25.4915 27.4416 25.5132 26.8654C25.5348 26.2892 25.3944 25.7286 25.0919 25.1835C24.7895 24.6385 24.3794 24.1441 23.8618 23.7004C23.3442 23.2566 22.7913 22.9255 22.2031 22.707C21.6149 22.4884 21.036 22.4325 20.4665 22.539C19.897 22.6456 19.3846 22.9644 18.9294 23.4954C18.4741 24.0265 18.2373 24.5815 18.219 25.1606C18.2008 25.7397 18.3445 26.3032 18.6504 26.8512C18.9562 27.3991 19.3679 27.8949 19.8855 28.3386C20.4031 28.7824 20.9543 29.1121 21.5392 29.3277C22.124 29.5434 22.6995 29.5965 23.2657 29.487C23.8318 29.3776 24.3425 29.0573 24.7978 28.5263Z" fill="black"/>
<path d="M30.6538 24.4848L21.9856 18.2749L23.2933 17.2738L29.7911 22.1344L29.8754 22.0698L26.8577 14.545L28.1864 13.5277L34.6259 18.3995L34.7103 18.3349L31.7298 10.815L33.0374 9.81388L36.7702 19.8021L35.5469 20.7386L29.0119 15.8731L28.8853 15.97L31.8771 23.5482L30.6538 24.4848Z" fill="black"/>
<path d="M37.2462 12.8696L39.8722 18.4153L38.4558 19.086L34.0905 9.8673L35.4589 9.21932L36.1409 10.6597L36.261 10.6029C36.2554 10.0324 36.4054 9.50098 36.711 9.00848C37.0147 8.51198 37.5146 8.0989 38.2108 7.76922C38.835 7.47365 39.4418 7.34306 40.0312 7.37746C40.6187 7.40786 41.1647 7.61955 41.6692 8.01255C42.1718 8.40154 42.6088 8.98815 42.9801 9.77238L45.7539 15.6301L44.3375 16.3008L41.6092 10.5391C41.2662 9.81491 40.811 9.3398 40.2436 9.11378C39.6742 8.88376 39.0614 8.92412 38.4052 9.23485C37.9531 9.44894 37.5954 9.73834 37.3321 10.103C37.0729 10.4658 36.9303 10.8836 36.9043 11.3563C36.8783 11.829 36.9923 12.3335 37.2462 12.8696Z" fill="black"/>
<path d="M55.0546 12.6787L53.7389 4.01235L55.2095 3.78907L56.5253 12.4554L55.0546 12.6787ZM50.9106 9.62706L50.6873 8.15642L59.3536 6.84067L59.5769 8.31132L50.9106 9.62706Z" fill="black"/>
</svg>
