<svg width="60" height="60" viewBox="0 0 60 60" fill="none" xmlns="http://www.w3.org/2000/svg">
<path d="M47.5 15C51.25 18.75 52.5 25 52.5 30C52.5 35 51.25 41.25 47.5 45M40 22.4999C41.25 23.7499 42.5 26.25 42.5 30C42.5 33.75 41.25 36.25 40 37.5M7.5 26.25V33.75C7.5 36.5115 8.75 38.75 13.75 40C18.75 41.25 22.5 52.5 30 52.5C35 52.5 35 7.5 30 7.5C22.5 7.5 18.75 18.75 13.75 20C8.75 21.25 7.5 23.4886 7.5 26.25Z" stroke="white" stroke-width="3.75" stroke-linecap="round" stroke-linejoin="round"/>
</svg>
