<svg width="60" height="60" viewBox="0 0 60 60" fill="none" xmlns="http://www.w3.org/2000/svg">
<g clip-path="url(#clip0_185_76)">
<path d="M26.0039 35.7773L35.8242 30.0117L26.0039 24.2461V35.7773Z" fill="black"/>
<path d="M55.3125 0H4.6875C2.09766 0 0 2.09766 0 4.6875V55.3125C0 57.9023 2.09766 60 4.6875 60H55.3125C57.9023 60 60 57.9023 60 55.3125V4.6875C60 2.09766 57.9023 0 55.3125 0ZM45 35.3672C45 40.5352 39.832 40.5352 39.832 40.5352H20.168C15 40.5352 15 35.3672 15 35.3672V24.6445C15 19.4766 20.168 19.4766 20.168 19.4766H39.832C45 19.4766 45 24.6445 45 24.6445V35.3672Z" fill="black"/>
</g>
<defs>
<clipPath id="clip0_185_76">
<rect width="60" height="60" fill="white"/>
</clipPath>
</defs>
</svg>
